<svg width="12" height="12" viewBox="0 0 12 12" fill="none" xmlns="http://www.w3.org/2000/svg">
<path d="M4.8813 5.33502C4.91047 5.14252 4.97464 4.97335 5.0563 4.82752C5.13797 4.68169 5.25464 4.55919 5.40047 4.46585C5.54047 4.37835 5.71547 4.33752 5.9313 4.33169C6.06547 4.33752 6.18797 4.36085 6.2988 4.40752C6.41547 4.46002 6.52047 4.53002 6.60214 4.61752C6.6838 4.70502 6.74797 4.81002 6.80047 4.92669C6.85297 5.04335 6.8763 5.17169 6.88214 5.30002H7.9263C7.91464 5.02585 7.86214 4.77502 7.76297 4.54752C7.6638 4.32002 7.52964 4.12169 7.35464 3.95835C7.17964 3.79502 6.96964 3.66669 6.72464 3.57335C6.47964 3.48002 6.2113 3.43919 5.9138 3.43919C5.53464 3.43919 5.20214 3.50335 4.92214 3.63752C4.64214 3.77169 4.4088 3.94669 4.22214 4.17419C4.03547 4.40169 3.89547 4.66419 3.80797 4.96752C3.72047 5.27085 3.66797 5.58585 3.66797 5.92419V6.08169C3.66797 6.42002 3.71464 6.73502 3.80214 7.03835C3.88964 7.34169 4.02964 7.60419 4.2163 7.82585C4.40297 8.04752 4.6363 8.22835 4.9163 8.35669C5.1963 8.48502 5.5288 8.55502 5.90797 8.55502C6.18214 8.55502 6.4388 8.50835 6.67797 8.42085C6.91714 8.33335 7.12714 8.21085 7.30797 8.05335C7.4888 7.89585 7.63464 7.71502 7.73964 7.50502C7.84464 7.29502 7.9088 7.07335 7.91464 6.83419H6.87047C6.86464 6.95669 6.83547 7.06752 6.78297 7.17252C6.73047 7.27752 6.66047 7.36502 6.57297 7.44085C6.48547 7.51669 6.3863 7.57502 6.26964 7.61585C6.1588 7.65669 6.04214 7.66835 5.91964 7.67419C5.70964 7.66835 5.53464 7.62752 5.40047 7.54002C5.25464 7.44669 5.13797 7.32419 5.0563 7.17835C4.97464 7.03252 4.91047 6.85752 4.8813 6.66502C4.85214 6.47252 4.83464 6.27419 4.83464 6.08169V5.92419C4.83464 5.72002 4.85214 5.52752 4.8813 5.33502ZM6.0013 0.166687C2.7813 0.166687 0.167969 2.78002 0.167969 6.00002C0.167969 9.22002 2.7813 11.8334 6.0013 11.8334C9.2213 11.8334 11.8346 9.22002 11.8346 6.00002C11.8346 2.78002 9.2213 0.166687 6.0013 0.166687ZM6.0013 10.6667C3.4288 10.6667 1.33464 8.57252 1.33464 6.00002C1.33464 3.42752 3.4288 1.33335 6.0013 1.33335C8.5738 1.33335 10.668 3.42752 10.668 6.00002C10.668 8.57252 8.5738 10.6667 6.0013 10.6667Z" fill="white"/>
</svg>
