<svg width="102" height="102" viewBox="0 0 102 102" fill="none" xmlns="http://www.w3.org/2000/svg">
<path d="M86.9405 15.0608L79.773 22.2283C87.093 29.5992 91.668 39.7658 91.668 51C91.668 73.4683 73.4696 91.6667 51.0013 91.6667C28.533 91.6667 10.3346 73.4683 10.3346 51C10.3346 30.26 25.8388 13.18 45.918 10.6892V20.9575C31.4813 23.3975 20.5013 35.9025 20.5013 51C20.5013 67.8258 34.1755 81.5 51.0013 81.5C67.8271 81.5 81.5013 67.8258 81.5013 51C81.5013 42.5617 78.0955 34.9367 72.5546 29.4467L65.3871 36.6142C69.0471 40.325 71.3346 45.4083 71.3346 51C71.3346 62.2342 62.2355 71.3333 51.0013 71.3333C39.7671 71.3333 30.668 62.2342 30.668 51C30.668 41.545 37.1746 33.6658 45.918 31.3783V42.2567C42.868 44.0358 40.8346 47.2383 40.8346 51C40.8346 56.5917 45.4096 61.1667 51.0013 61.1667C56.593 61.1667 61.168 56.5917 61.168 51C61.168 47.2383 59.1346 43.985 56.0846 42.2567V0.166668H51.0013C22.9413 0.166668 0.167969 22.94 0.167969 51C0.167969 79.06 22.9413 101.833 51.0013 101.833C79.0613 101.833 101.835 79.06 101.835 51C101.835 36.97 96.1413 24.2617 86.9405 15.0608Z" fill="white" fill-opacity="0.2"/>
</svg>
