<svg width="49" height="49" viewBox="0 0 49 49" fill="none" xmlns="http://www.w3.org/2000/svg">
<path d="M30.8555 33H19.1602V30.6797L24.6797 24.7969C25.4375 23.9688 25.9961 23.2461 26.3555 22.6289C26.7227 22.0117 26.9062 21.4258 26.9062 20.8711C26.9062 20.1133 26.7148 19.5195 26.332 19.0898C25.9492 18.6523 25.4023 18.4336 24.6914 18.4336C23.9258 18.4336 23.3203 18.6992 22.875 19.2305C22.4375 19.7539 22.2188 20.4453 22.2188 21.3047H18.8203C18.8203 20.2656 19.0664 19.3164 19.5586 18.457C20.0586 17.5977 20.7617 16.9258 21.668 16.4414C22.5742 15.9492 23.6016 15.7031 24.75 15.7031C26.5078 15.7031 27.8711 16.125 28.8398 16.9688C29.8164 17.8125 30.3047 19.0039 30.3047 20.543C30.3047 21.3867 30.0859 22.2461 29.6484 23.1211C29.2109 23.9961 28.4609 25.0156 27.3984 26.1797L23.5195 30.2695H30.8555V33Z" fill="#324261"/>
<path d="M49 24.5C49 30.1682 47.0346 35.6611 43.4388 40.0426C39.8429 44.4242 34.839 47.4234 29.2797 48.5292C23.7204 49.6351 17.9497 48.779 12.9508 46.1071C7.95187 43.4351 4.03408 39.1125 1.86495 33.8757C-0.304176 28.639 -0.590431 22.8122 1.05496 17.388C2.70035 11.9639 6.17559 7.27808 10.8885 4.129C15.6015 0.97991 21.2605 -0.437607 26.9014 0.117974C32.5423 0.673554 37.8161 3.16786 41.8241 7.17588L40.158 8.84201C36.5354 5.21945 31.7689 2.96503 26.6705 2.46288C21.5721 1.96074 16.4573 3.24192 12.1976 6.08815C7.93791 8.93438 4.79691 13.1695 3.30976 18.072C1.82261 22.9745 2.08133 28.2409 4.04185 32.974C6.00236 37.7071 9.54337 41.614 14.0615 44.029C18.5797 46.444 23.7954 47.2177 28.82 46.2183C33.8447 45.2188 38.3673 42.508 41.6173 38.5478C44.8674 34.5877 46.6437 29.6231 46.6437 24.5H49Z" fill="#324261"/>
<path d="M40.439 20.2295C41.427 23.9168 41.106 27.8326 39.5305 31.3097C37.9551 34.7868 35.2227 37.61 31.799 39.2984C28.3753 40.9868 24.4721 41.4358 20.7545 40.569C17.0369 39.7022 13.7348 37.5731 11.4109 34.5446C9.08707 31.5161 7.88519 27.7755 8.01009 23.9602C8.13499 20.1448 9.57894 16.4909 12.0959 13.6208C14.6129 10.7508 18.0471 8.84224 21.8135 8.22041C25.5799 7.59858 29.4453 8.30192 32.7513 10.2106L31.9578 11.5849C28.9698 9.85976 25.4761 9.22406 22.072 9.78608C18.6678 10.3481 15.5639 12.0731 13.289 14.6671C11.0141 17.2611 9.709 20.5637 9.59611 24.0121C9.48322 27.4605 10.5695 30.8413 12.6699 33.5786C14.7702 36.3158 17.7547 38.2401 21.1148 39.0236C24.4749 39.807 28.0028 39.4012 31.0972 37.8752C34.1916 36.3492 36.6612 33.7975 38.0851 30.6548C39.509 27.5121 39.7992 23.9729 38.9062 20.6402L40.439 20.2295Z" fill="#324261"/>
</svg>
