<svg width="49" height="49" viewBox="0 0 49 49" fill="none" xmlns="http://www.w3.org/2000/svg">
<path d="M22.6055 22.9688H24.4102C25.2695 22.9688 25.9062 22.7539 26.3203 22.3242C26.7344 21.8945 26.9414 21.3242 26.9414 20.6133C26.9414 19.9258 26.7344 19.3906 26.3203 19.0078C25.9141 18.625 25.3516 18.4336 24.6328 18.4336C23.9844 18.4336 23.4414 18.6133 23.0039 18.9727C22.5664 19.3242 22.3477 19.7852 22.3477 20.3555H18.9609C18.9609 19.4648 19.1992 18.668 19.6758 17.9648C20.1602 17.2539 20.832 16.6992 21.6914 16.3008C22.5586 15.9023 23.5117 15.7031 24.5508 15.7031C26.3555 15.7031 27.7695 16.1367 28.793 17.0039C29.8164 17.8633 30.3281 19.0508 30.3281 20.5664C30.3281 21.3477 30.0898 22.0664 29.6133 22.7227C29.1367 23.3789 28.5117 23.8828 27.7383 24.2344C28.6992 24.5781 29.4141 25.0938 29.8828 25.7812C30.3594 26.4688 30.5977 27.2812 30.5977 28.2188C30.5977 29.7344 30.043 30.9492 28.9336 31.8633C27.832 32.7773 26.3711 33.2344 24.5508 33.2344C22.8477 33.2344 21.4531 32.7852 20.3672 31.8867C19.2891 30.9883 18.75 29.8008 18.75 28.3242H22.1367C22.1367 28.9648 22.375 29.4883 22.8516 29.8945C23.3359 30.3008 23.9297 30.5039 24.6328 30.5039C25.4375 30.5039 26.0664 30.293 26.5195 29.8711C26.9805 29.4414 27.2109 28.875 27.2109 28.1719C27.2109 26.4688 26.2734 25.6172 24.3984 25.6172H22.6055V22.9688Z" fill="#324261"/>
<path d="M49 24.5C49 30.1682 47.0346 35.6611 43.4388 40.0426C39.8429 44.4242 34.839 47.4234 29.2797 48.5292C23.7204 49.6351 17.9497 48.779 12.9508 46.1071C7.95187 43.4351 4.03408 39.1125 1.86495 33.8757C-0.304176 28.639 -0.590431 22.8122 1.05496 17.388C2.70035 11.9639 6.17559 7.27808 10.8885 4.129C15.6015 0.97991 21.2605 -0.437607 26.9014 0.117974C32.5423 0.673554 37.8161 3.16786 41.8241 7.17588L40.158 8.84201C36.5354 5.21945 31.7689 2.96503 26.6705 2.46288C21.5721 1.96074 16.4573 3.24192 12.1976 6.08815C7.93791 8.93438 4.79691 13.1695 3.30976 18.072C1.82261 22.9745 2.08133 28.2409 4.04185 32.974C6.00236 37.7071 9.54337 41.614 14.0615 44.029C18.5797 46.444 23.7954 47.2177 28.82 46.2183C33.8447 45.2188 38.3673 42.508 41.6173 38.5478C44.8674 34.5877 46.6437 29.6231 46.6437 24.5H49Z" fill="#324261"/>
<path d="M40.439 20.2295C41.427 23.9168 41.106 27.8326 39.5305 31.3097C37.9551 34.7868 35.2227 37.61 31.799 39.2984C28.3753 40.9868 24.4721 41.4358 20.7545 40.569C17.0369 39.7022 13.7348 37.5731 11.4109 34.5446C9.08707 31.5161 7.88519 27.7755 8.01009 23.9602C8.13499 20.1448 9.57894 16.4909 12.0959 13.6208C14.6129 10.7508 18.0471 8.84224 21.8135 8.22041C25.5799 7.59858 29.4453 8.30192 32.7513 10.2106L31.9578 11.5849C28.9698 9.85976 25.4761 9.22406 22.072 9.78608C18.6678 10.3481 15.5639 12.0731 13.289 14.6671C11.0141 17.2611 9.709 20.5637 9.59611 24.0121C9.48322 27.4605 10.5695 30.8413 12.6699 33.5786C14.7702 36.3158 17.7547 38.2401 21.1148 39.0236C24.4749 39.807 28.0028 39.4012 31.0972 37.8752C34.1916 36.3492 36.6612 33.7975 38.0851 30.6548C39.509 27.5121 39.7992 23.9729 38.9062 20.6402L40.439 20.2295Z" fill="#324261"/>
</svg>
