<svg  xmlns="http://www.w3.org/2000/svg">
<symbol id="arrow" viewBox="0 0 8 12">
<g>
<path d="M7.12583 10.2075L2.9275 6L7.12583 1.7925L5.83333 0.5L0.333328 6L5.83333 11.5L7.12583 10.2075Z"/>
</g>
</symbol>
<symbol id="big-arrow" viewBox="0 0 15 22">
<g>
<path d="M14.2517 19.415L5.85499 11L14.2517 2.585L11.6667 0L0.666656 11L11.6667 22L14.2517 19.415Z"/>
</g>
</symbol>
<symbol id="scale" viewBox="0 0 34 34">
<g>
<path d="M21.9583 19.8333H20.8392L20.4425 19.4508C21.8308 17.8358 22.6667 15.7392 22.6667 13.4583C22.6667 8.3725 18.5442 4.25 13.4583 4.25C8.3725 4.25 4.25 8.3725 4.25 13.4583C4.25 18.5442 8.3725 22.6667 13.4583 22.6667C15.7392 22.6667 17.8358 21.8308 19.4508 20.4425L19.8333 20.8392V21.9583L26.9167 29.0275L29.0275 26.9167L21.9583 19.8333ZM13.4583 19.8333C9.93083 19.8333 7.08333 16.9858 7.08333 13.4583C7.08333 9.93083 9.93083 7.08333 13.4583 7.08333C16.9858 7.08333 19.8333 9.93083 19.8333 13.4583C19.8333 16.9858 16.9858 19.8333 13.4583 19.8333Z" fill="#324261" />
<path d="M17 14.1667H14.1667V17.0001H12.75V14.1667H9.91666V12.7501H12.75V9.91675H14.1667V12.7501H17V14.1667Z" fill="#324261" />
</g>
</symbol>
<symbol id="close" viewBox="0 0 18 18">
<g>
<path d="M17.1666 2.47825L15.5216 0.833252L8.99992 7.35492L2.47825 0.833252L0.833252 2.47825L7.35492 8.99992L0.833252 15.5216L2.47825 17.1666L8.99992 10.6449L15.5216 17.1666L17.1666 15.5216L10.6449 8.99992L17.1666 2.47825Z" fill="black" fill-opacity="0.3"/>
</g>
</symbol>
</svg>



